<?xml version="1.0" encoding="UTF-8" standalone="no"?>
<svg

   width="260.43201"
   height="104.05286"
   viewBox="0 0 68.905971 27.530652"
   version="1.1"
   id="svg2942">
  <defs
     id="defs2936" />
  <g
     id="layer1"
     transform="translate(-42.167118,-59.624261)">
    <g
       id="g7257"
       transform="translate(-69.995074,-57.424933)">
      <rect
         style="fill:#552200;fill-opacity:1;stroke:#000000;stroke-width:0.0264583;stroke-linecap:round;stroke-linejoin:round;stroke-miterlimit:4;stroke-dasharray:none;stroke-dashoffset:0;stroke-opacity:1"
         id="rect7106"
         width="3.4938884"
         height="9.2338476"
         x="114.60972"
         y="134.7943" />
      <use
         x="0"
         y="0"
         xlink:href="#rect7106"
         id="use7108"
         transform="translate(60.893483,-0.4991269)"
         width="100%"
         height="100%" />
      <rect
         style="fill:#f2f2f2;fill-opacity:1;stroke:#000000;stroke-width:0.0264583;stroke-linecap:round;stroke-linejoin:round;stroke-miterlimit:4;stroke-dasharray:none;stroke-dashoffset:0;stroke-opacity:1"
         id="rect7112"
         width="66.134315"
         height="5.2408328"
         x="112.80269"
         y="123.62402" />
      <rect
         style="fill:#552200;fill-opacity:1;stroke:#000000;stroke-width:0.021002;stroke-linecap:round;stroke-linejoin:round;stroke-miterlimit:4;stroke-dasharray:none;stroke-dashoffset:0;stroke-opacity:1"
         id="rect7110"
         width="68.884964"
         height="8.4906139"
         x="111.86179"
         y="127.80379" />
      <path
         id="rect7114"
         style="fill:#f2f2f2;fill-opacity:1;stroke:#000000;stroke-width:0.0264583;stroke-linecap:round;stroke-linejoin:round;stroke-miterlimit:4;stroke-dasharray:none;stroke-dashoffset:0;stroke-opacity:1"
         d="m 117.105,118.47 c 0.706,-0.266 1.027,-0.353 1.628,-0.397 0.386,-0.029 1.14782,-0.0725 1.94182,-0.10348 0.829,0.122 1.39218,0.24548 2.21218,0.31148 0.83,0.067 1.658,0.108 2.485,0.13 0.829,0.022 1.658,0.023 2.489,0.011 0.826,-0.012 1.654,-0.039 2.488,-0.073 0.823,-0.034 1.65,-0.077 2.486,-0.121 0.82,-0.044 1.647,-0.09 2.485,-0.134 0.676,-0.035 0.98,0.589 1.68,0.632 0,0 -0.122,1.264 -0.244,2.529 -0.123,1.264 -0.245,2.528 -0.245,2.528 h -2.145 -2.146 -2.146 -2.147 -2.147 -2.146 -2.146 -2.146 -2.146 -2.147 c -0.173,-0.221 -0.496,-0.031 -0.371,-0.753 0.053,-0.309 -0.029,-1.023 0,-1.501 0.022,-0.38 0.152,-0.884 0.377,-1.487 0.151,-0.406 0.579,-1.018 0.783,-1.095 l 1.267,-0.477" />
      <path
         id="Blanket"
         style="fill:#999999;fill-opacity:1;stroke:#000000;stroke-width:0.0189094;stroke-linecap:round;stroke-linejoin:round;stroke-miterlimit:4;stroke-dasharray:none;stroke-dashoffset:0;stroke-opacity:1"
         d="m 125.91032,117.47708 c 0,0 2.06197,-0.003 5.37839,-0.007 1.54788,-0.002 3.26048,0.19258 5.27206,0.19031 1.67669,-0.002 3.60098,-0.13226 5.48695,-0.20309 2.37849,-0.0893 3.75419,0.47713 5.5944,0.47485 1.77189,-0.002 4.65073,-0.13535 6.45398,-0.13763 1.80437,-0.002 3.39385,-0.2666 5.16461,-0.26887 1.84022,-0.002 4.07549,0.30213 5.80929,0.29986 1.89397,-0.002 2.53461,-0.18182 4.19648,-0.26888 2.5488,-0.13353 3.83163,-0.005 5.37951,-0.006 3.31642,-0.004 5.37951,-0.006 5.37951,-0.006 0,0 -0.0235,0.71598 -0.0582,1.77627 -0.0179,0.52308 -0.0381,1.13052 -0.0594,1.77673 -0.019,0.57142 -0.36155,1.0426 -0.38058,1.64502 -0.0201,0.60198 -0.0403,1.2044 -0.0582,1.77628 -0.0213,0.6462 -0.0415,1.25365 -0.0594,1.77672 -0.0347,1.06029 -0.0582,1.77628 -0.0582,1.77628 -2.56711,-0.0119 -1.97686,-0.13453 -3.15625,-0.20522 -0.93074,-0.0556 -2.13142,-0.10307 -3.32536,-0.13955 -1.22084,-0.0374 -2.43271,-0.0639 -3.34106,-0.0775 -0.94755,-0.0142 -3.79802,0.34795 -5.11742,0.31238 -1.18723,-0.0324 -3.27385,-0.28913 -4.96622,-0.32014 -0.50625,-0.009 -2.66903,0.10945 -4.83517,0.2262 -2.1471,0.11537 -4.29756,0.22893 -4.83966,0.21388 -0.73138,-0.0201 -1.95669,-0.13225 -3.19096,-0.24489 -1.20739,-0.10991 -2.42263,-0.22073 -3.19097,-0.24672 -0.92738,-0.031 -3.05097,0.44555 -4.01308,0.4045 -0.88481,-0.0383 -4.06011,-0.24033 -4.96061,-0.28639 -1.65093,-0.0839 -3.64234,0.26177 -5.34927,0.13681 l -3.49898,0.25858 c 0,0 0.0235,-0.7137 0.0572,-1.7708 0.0168,-0.52171 0.0369,-1.12687 0.0571,-1.77126 0.019,-0.57004 0.0381,-1.17065 0.0571,-1.77125 0.0191,-0.6006 0.0381,-1.2012 0.0571,-1.7708 0.0213,-0.64438 0.0403,-1.24955 0.0582,-1.77125 0.0336,-1.0571 0.0571,-1.7708 0.0571,-1.7708" />
    </g>
  </g>
</svg>
