<?xml version="1.0" encoding="UTF-8" standalone="no"?>
<svg
   xmlns:osb="http://www.openswatchbook.org/uri/2009/osb"
   xmlns:dc="http://purl.org/dc/elements/1.1/"
   xmlns:cc="http://creativecommons.org/ns#"
   xmlns:rdf="http://www.w3.org/1999/02/22-rdf-syntax-ns#"
   xmlns:svg="http://www.w3.org/2000/svg"
   xmlns="http://www.w3.org/2000/svg"
   xmlns:xlink="http://www.w3.org/1999/xlink"
   xmlns:sodipodi="http://sodipodi.sourceforge.net/DTD/sodipodi-0.dtd"
   xmlns:inkscape="http://www.inkscape.org/namespaces/inkscape"
   width="113.34624"
   height="80.750809"
   viewBox="0 0 29.989529 21.365318"
   version="1.1"
   id="svg2942"
   inkscape:version="1.0.1 (c497b03c, 2020-09-10)"
   sodipodi:docname="toolbox.svg">
  <defs
     id="defs2936">
    <linearGradient
       inkscape:collect="always"
       xlink:href="#linearGradient7370"
       id="linearGradient7372"
       x1="178.24081"
       y1="434.87592"
       x2="245.29341"
       y2="434.87592"
       gradientUnits="userSpaceOnUse" />
    <linearGradient
       id="linearGradient7370"
       osb:paint="solid">
      <stop
         style="stop-color:#000000;stop-opacity:1;"
         offset="0"
         id="stop7368" />
    </linearGradient>
  </defs>
  <sodipodi:namedview
     id="base"
     pagecolor="#ffffff"
     bordercolor="#666666"
     borderopacity="1.0"
     inkscape:pageopacity="0.0"
     inkscape:pageshadow="2"
     inkscape:zoom="3.497226"
     inkscape:cx="71.920151"
     inkscape:cy="48.717188"
     inkscape:document-units="px"
     inkscape:current-layer="layer1"
     inkscape:document-rotation="0"
     showgrid="false"
     units="px"
     inkscape:window-width="1252"
     inkscape:window-height="847"
     inkscape:window-x="0"
     inkscape:window-y="25"
     inkscape:window-maximized="0" />
  <metadata
     id="metadata2939">
    <rdf:RDF>
      <cc:Work
         rdf:about="">
        <dc:format>image/svg+xml</dc:format>
        <dc:type
           rdf:resource="http://purl.org/dc/dcmitype/StillImage" />
        <dc:title></dc:title>
      </cc:Work>
    </rdf:RDF>
  </metadata>
  <g
     inkscape:label="Layer 1"
     inkscape:groupmode="layer"
     id="layer1"
     transform="translate(-98.360041,-26.415277)">
    <g
       id="g9351"
       transform="translate(56.335528,-84.159591)">
      <rect
         style="fill:#f75c4e;fill-opacity:1;stroke:#000000;stroke-width:0.0264583;stroke-linecap:round;stroke-linejoin:round;stroke-miterlimit:4;stroke-dasharray:none;stroke-dashoffset:0;stroke-opacity:1"
         id="rect7315"
         width="29.96307"
         height="12.745485"
         x="42.037743"
         y="119.18147" />
      <path
         style="fill:none;stroke:#000000;stroke-width:0.264641;stroke-linecap:butt;stroke-linejoin:miter;stroke-miterlimit:4;stroke-dasharray:none;stroke-opacity:1"
         d="m 42.037743,127.67899 29.96307,-0.0682"
         id="path7317" />
      <g
         id="g7346">
        <path
           style="fill:none;stroke:#000000;stroke-width:0.370417;stroke-linecap:butt;stroke-linejoin:miter;stroke-miterlimit:4;stroke-dasharray:none;stroke-opacity:1"
           d="m 48.850947,119.18147 c 0,0 -0.382751,-6.12961 6.978704,-6.03338 7.118282,0.0931 7.164806,6.03338 7.164806,6.03338"
           id="path7321"
           sodipodi:nodetypes="csc" />
        <path
           style="fill:none;stroke:#000000;stroke-width:0.495232;stroke-linecap:butt;stroke-linejoin:miter;stroke-miterlimit:4;stroke-dasharray:none;stroke-opacity:1"
           d="m 46.911327,119.18147 c 0,0 -0.4939,-8.49076 9.005269,-8.35746 9.18538,0.12896 9.245416,8.35746 9.245416,8.35746"
           id="path7321-2"
           sodipodi:nodetypes="csc" />
        <path
           style="fill:none;stroke:#000000;stroke-width:0.264583px;stroke-linecap:butt;stroke-linejoin:miter;stroke-opacity:1"
           d="m 46.709399,119.14108 2.202127,-0.0606"
           id="path7338"
           sodipodi:nodetypes="cc" />
        <path
           style="fill:none;stroke:#000000;stroke-width:0.264583px;stroke-linecap:butt;stroke-linejoin:miter;stroke-opacity:1"
           d="m 62.994457,119.18147 h 2.167554"
           id="path7340" />
      </g>
      <rect
         style="fill:#917c6f;fill-opacity:1;stroke:#6c5d53;stroke-width:0.0529167;stroke-miterlimit:4;stroke-dasharray:none;stroke-opacity:1"
         id="rect7356"
         width="3.518122"
         height="3.4328341"
         x="54.504681"
         y="120.91291" />
      <g
         id="g7364"
         transform="translate(0.08313133,-0.15240744)">
        <circle
           style="fill:#c8beb7;fill-opacity:1;stroke:#c8beb7;stroke-width:0.0240191;stroke-miterlimit:4;stroke-dasharray:none;stroke-opacity:1"
           id="path7358"
           cx="56.221817"
           cy="123.30881"
           r="0.4716711" />
        <rect
           style="fill:#c8beb7;fill-opacity:1;stroke:#c8beb7;stroke-width:0.0529167;stroke-miterlimit:4;stroke-dasharray:none;stroke-opacity:1"
           id="rect7360"
           width="0.44336712"
           height="1.3439566"
           x="56.002808"
           y="121.99522" />
      </g>
      <path
         style="fill:#1a1a1a;fill-opacity:1;stroke:url(#linearGradient7372)"
         d="m 238.68604,448.80069 c -0.45444,-3.72771 -1.81342,-7.54074 -3.77302,-10.58639 -1.67593,-2.60477 -4.21597,-5.14486 -6.81111,-6.81125 -4.64032,-2.97965 -10.58822,-4.48691 -17.70607,-4.48691 -8.82072,0 -15.53958,2.31357 -20.15176,6.93903 -2.25975,2.26626 -3.86795,4.87138 -4.97931,8.06596 -0.77015,2.21374 -1.35171,5.27994 -1.35171,7.12662 v 0.51709 l -2.23234,0.0489 c -1.22779,0.0269 -2.50404,0.0694 -2.83612,0.0944 l -0.60378,0.0455 0.0509,-1.21107 c 0.26369,-6.27021 2.27255,-12.50587 5.48513,-17.02617 1.29619,-1.82384 3.16616,-3.82531 4.7535,-5.08779 4.77346,-3.79656 10.49254,-5.83404 18.16398,-6.47108 1.7056,-0.14163 6.3013,-0.11898 8.125,0.0401 9.54936,0.83272 16.73748,3.99954 22.08026,9.72773 3.81693,4.09226 6.55238,9.64189 7.7942,15.81269 0.2205,1.09568 0.47184,2.80333 0.54762,3.72056 l 0.052,0.62964 h -3.23742 -3.23742 z"
         id="path7366"
         transform="scale(0.26458334)" />
    </g>
  </g>
</svg>
