<?xml version="1.0" encoding="UTF-8" standalone="no"?>
<svg
   xmlns:dc="http://purl.org/dc/elements/1.1/"
   xmlns:cc="http://creativecommons.org/ns#"
   xmlns:rdf="http://www.w3.org/1999/02/22-rdf-syntax-ns#"
   xmlns:svg="http://www.w3.org/2000/svg"
   xmlns="http://www.w3.org/2000/svg"
   xmlns:xlink="http://www.w3.org/1999/xlink"
   xmlns:sodipodi="http://sodipodi.sourceforge.net/DTD/sodipodi-0.dtd"
   xmlns:inkscape="http://www.inkscape.org/namespaces/inkscape"
   width="900"
   height="600"
   viewBox="0 0 238.12501 158.75"
   version="1.1"
   id="svg2942"
   inkscape:version="1.0.1 (c497b03c, 2020-09-10)"
   sodipodi:docname="underBed.svg">
  <defs
     id="defs2936" />
  <sodipodi:namedview
     id="base"
     pagecolor="#ffffff"
     bordercolor="#666666"
     borderopacity="1.0"
     inkscape:pageopacity="0.0"
     inkscape:pageshadow="2"
     inkscape:zoom="0.45642848"
     inkscape:cx="446.34499"
     inkscape:cy="471.52899"
     inkscape:document-units="px"
     inkscape:current-layer="g7257"
     inkscape:document-rotation="0"
     showgrid="false"
     units="px"
     inkscape:window-width="1252"
     inkscape:window-height="847"
     inkscape:window-x="0"
     inkscape:window-y="25"
     inkscape:window-maximized="0" />
  <metadata
     id="metadata2939">
    <rdf:RDF>
      <cc:Work
         rdf:about="">
        <dc:format>image/svg+xml</dc:format>
        <dc:type
           rdf:resource="http://purl.org/dc/dcmitype/StillImage" />
        <dc:title></dc:title>
      </cc:Work>
    </rdf:RDF>
  </metadata>
  <g
     inkscape:label="Layer 1"
     inkscape:groupmode="layer"
     id="layer1">
    <g
       id="g7257"
       transform="matrix(3.3488025,0,0,3.3488025,-371.2293,-333.04406)">
      <rect
         style="fill:#552200;fill-opacity:1;stroke:#000000;stroke-width:0.0264583;stroke-linecap:round;stroke-linejoin:round;stroke-miterlimit:4;stroke-dasharray:none;stroke-dashoffset:0;stroke-opacity:1"
         id="rect7106"
         width="3.4938884"
         height="9.2338476"
         x="137.30602"
         y="166.83736" />
      <use
         x="0"
         y="0"
         xlink:href="#rect7106"
         id="use7108"
         transform="translate(60.893483,-0.4991257)"
         width="100%"
         height="100%" />
      <rect
         style="fill:#f2f2f2;fill-opacity:1;stroke:#000000;stroke-width:0.0264583;stroke-linecap:round;stroke-linejoin:round;stroke-miterlimit:4;stroke-dasharray:none;stroke-dashoffset:0;stroke-opacity:1"
         id="rect7112"
         width="66.134315"
         height="5.2408328"
         x="43.129467"
         y="159.19662" />
      <rect
         style="fill:#552200;fill-opacity:1;stroke:#000000;stroke-width:0.021002;stroke-linecap:round;stroke-linejoin:round;stroke-miterlimit:4;stroke-dasharray:none;stroke-dashoffset:0;stroke-opacity:1"
         id="rect7110"
         width="68.884964"
         height="8.4906139"
         x="134.55809"
         y="159.84683" />
      <path
         id="rect7114"
         style="fill:#f2f2f2;fill-opacity:1;stroke:#000000;stroke-width:0.0264583;stroke-linecap:round;stroke-linejoin:round;stroke-miterlimit:4;stroke-dasharray:none;stroke-dashoffset:0;stroke-opacity:1"
         d="m 70.889665,115.57752 0.8659,-0.69807 1.67483,-0.0728 c 0.44112,0.30013 2.4611,0.94323 2.91768,1.16609 4.91775,2.40038 9.65995,0.67315 14.81284,0.40395 0.67648,-0.0353 0.97972,0.58933 1.67986,0.63187 l -0.48865,5.0576 h -21.46246 z"
         sodipodi:nodetypes="cccsscccc" />
      <path
         id="rect7135"
         style="fill:#008000;fill-opacity:1;stroke:#000000;stroke-width:0.0264583;stroke-linecap:round;stroke-linejoin:round;stroke-miterlimit:4;stroke-dasharray:none;stroke-dashoffset:0;stroke-opacity:1"
         d="m 208.87663,112.29012 c 0,0 1.841,-0.006 4.802,-0.015 1.382,-0.004 2.91107,0.42231 4.70707,0.41731 1.497,-0.004 3.21507,-0.29 4.89893,-0.44531 2.12359,-0.19586 3.35186,1.04625 4.99486,1.04125 1.582,-0.004 4.15232,-0.2968 5.76232,-0.3018 1.611,-0.004 3.03014,-0.58459 4.61114,-0.58959 1.643,-0.005 3.63872,0.66253 5.18672,0.65753 1.691,-0.005 2.26298,-0.39869 3.74676,-0.58959 2.27565,-0.2928 3.421,-0.01 4.803,-0.014 2.961,-0.008 4.803,-0.014 4.803,-0.014 0,0 -0.021,1.57 -0.052,3.895 -0.016,1.147 -0.034,2.479 -0.053,3.896 -0.017,1.253 -0.3228,2.2862 -0.3398,3.6072 -0.018,1.32 -0.036,2.641 -0.052,3.895 -0.019,1.417 -0.037,2.749 -0.053,3.896 -0.031,2.325 -0.052,3.895 -0.052,3.895 -2.292,-0.026 -1.765,-0.295 -2.818,-0.45 -0.831,-0.122 -1.903,-0.226 -2.969,-0.306 -1.09,-0.082 -2.172,-0.14 -2.983,-0.17 -0.846,-0.031 -3.391,0.763 -4.569,0.685 -1.06,-0.071 -2.923,-0.634 -4.434,-0.702 -0.452,-0.02 -2.383,0.24 -4.317,0.496 -1.917,0.253 -3.837,0.502 -4.321,0.469 -0.653,-0.044 -1.747,-0.29 -2.849,-0.537 -1.078,-0.241 -2.163,-0.484 -2.849,-0.541 -0.828,-0.068 -2.724,0.977 -3.583,0.887 -0.79,-0.084 -3.625,-0.527 -4.429,-0.628 -1.474,-0.184 -3.252,0.574 -4.776,0.3 l -3.124,0.567 c 0,0 0.021,-1.565 0.051,-3.883 0.015,-1.144 0.033,-2.471 0.051,-3.884 0.017,-1.25 0.034,-2.567 0.051,-3.884 0.017,-1.317 0.034,-2.634 0.051,-3.883 0.019,-1.413 0.036,-2.74 0.052,-3.884 0.03,-2.318 0.051,-3.883 0.051,-3.883"
         sodipodi:nodetypes="cccsssssssscccccccccccccccccccccsccc" />
      <rect
         style="fill:#e6e6e6;stroke-width:0.0790083"
         id="rect9512"
         width="71.882385"
         height="35.035114"
         x="110.65299"
         y="112.13682" />
      <rect
         style="fill:#552200;fill-opacity:1;stroke:#000000;stroke-width:0.0577094;stroke-linecap:round;stroke-linejoin:round;stroke-miterlimit:4;stroke-dasharray:none;stroke-dashoffset:0;stroke-opacity:1"
         id="rect7106-4"
         width="6.8856082"
         height="22.290426"
         x="113.15005"
         y="99.280121" />
      <rect
         style="fill:#552200;fill-opacity:1;stroke:#000000;stroke-width:0.0577094;stroke-linecap:round;stroke-linejoin:round;stroke-miterlimit:4;stroke-dasharray:none;stroke-dashoffset:0;stroke-opacity:1"
         id="rect7106-4-1"
         width="6.8856082"
         height="22.290426"
         x="171.84393"
         y="99.582138" />
      <path
         id="rect7135-7"
         style="fill:#008000;fill-opacity:1;stroke:#000000;stroke-width:0.00987229;stroke-linecap:round;stroke-linejoin:round;stroke-miterlimit:4;stroke-dasharray:none;stroke-dashoffset:0;stroke-opacity:1"
         d="m 116.05542,99.27484 c 0,0 2.35953,-5.7e-4 6.15451,-0.0017 1.77125,-4.33e-4 3.73099,0.04585 6.03284,0.04534 1.91864,-4.33e-4 4.12061,-0.03148 6.27874,-0.04836 2.72171,-0.02127 4.29593,0.11365 6.40169,0.113108 2.02758,-4.34e-4 5.32185,-0.03222 7.38531,-0.03279 2.06475,-4.34e-4 3.8836,-0.0635 5.9099,-0.06405 2.10576,-5.42e-4 4.66358,0.07197 6.64759,0.07143 2.16728,-5.48e-4 2.90036,-0.04329 4.80205,-0.06405 2.9166,-0.03182 4.38455,-0.0011 6.15579,-0.0017 3.79499,-0.0011 6.1558,-0.0017 6.1558,-0.0017 0,0 -0.0269,0.170544 -0.0667,0.423107 -0.0205,0.124594 -0.0436,0.269285 -0.0679,0.423205 -0.0218,0.13612 -0.41372,0.24835 -0.4355,0.39184 -0.0231,0.14339 -0.0461,0.28689 -0.0667,0.42311 -0.0243,0.15393 -0.0474,0.29862 -0.0679,0.42321 -0.0397,0.25256 -0.0666,0.42311 -0.0666,0.42311 -2.93756,-0.003 -2.26213,-0.032 -3.61171,-0.0489 -1.06506,-0.0132 -2.43899,-0.0245 -3.80524,-0.0332 -1.397,-0.009 -2.78375,-0.0152 -3.82317,-0.0185 -1.08428,-0.003 -4.3461,0.0829 -5.85589,0.0744 -1.35855,-0.008 -3.74628,-0.0689 -5.68286,-0.0763 -0.57931,-0.002 -3.05419,0.0261 -5.53291,0.0539 -2.45693,0.0275 -4.91771,0.0545 -5.53803,0.0509 -0.83692,-0.005 -2.23905,-0.0315 -3.65144,-0.0583 -1.38162,-0.0262 -2.77222,-0.0526 -3.65144,-0.0588 -1.06121,-0.007 -3.49123,0.10613 -4.59217,0.0964 -1.01251,-0.009 -4.646,-0.0572 -5.67645,-0.0682 -1.88916,-0.02 -4.16794,0.0623 -6.12119,0.0326 l -4.00389,0.0616 c 0,0 0.0269,-0.17 0.0654,-0.4218 0.0192,-0.12427 0.0423,-0.26842 0.0654,-0.42191 0.0218,-0.13578 0.0436,-0.27885 0.0654,-0.42191 0.0218,-0.14306 0.0436,-0.28613 0.0654,-0.4218 0.0243,-0.153488 0.0461,-0.297638 0.0666,-0.421907 0.0384,-0.251799 0.0654,-0.4218 0.0654,-0.4218"
         sodipodi:nodetypes="cccsssssssscccccccccccccccccccccsccc" />
    </g>
  </g>
</svg>
