<?xml version="1.0" encoding="UTF-8" standalone="no"?>
<svg
   xmlns:dc="http://purl.org/dc/elements/1.1/"
   xmlns:cc="http://creativecommons.org/ns#"
   xmlns:rdf="http://www.w3.org/1999/02/22-rdf-syntax-ns#"
   xmlns:svg="http://www.w3.org/2000/svg"
   xmlns="http://www.w3.org/2000/svg"
   xmlns:sodipodi="http://sodipodi.sourceforge.net/DTD/sodipodi-0.dtd"
   xmlns:inkscape="http://www.inkscape.org/namespaces/inkscape"
   width="4.9007154mm"
   height="1.1991153mm"
   viewBox="0 0 4.9007154 1.1991153"
   version="1.1"
   id="svg2261"
   inkscape:version="1.0.1 (c497b03c, 2020-09-10)"
   sodipodi:docname="windowKey.svg">
  <defs
     id="defs2255" />
  <sodipodi:namedview
     id="base"
     pagecolor="#ffffff"
     bordercolor="#666666"
     borderopacity="1.0"
     inkscape:pageopacity="0.0"
     inkscape:pageshadow="2"
     inkscape:zoom="37.653354"
     inkscape:cx="8.5951905"
     inkscape:cy="4.934593"
     inkscape:document-units="mm"
     inkscape:current-layer="windowKey"
     inkscape:document-rotation="0"
     showgrid="false"
     inkscape:window-width="1252"
     inkscape:window-height="847"
     inkscape:window-x="0"
     inkscape:window-y="25"
     inkscape:window-maximized="0" />
  <metadata
     id="metadata2258">
    <rdf:RDF>
      <cc:Work
         rdf:about="">
        <dc:format>image/svg+xml</dc:format>
        <dc:type
           rdf:resource="http://purl.org/dc/dcmitype/StillImage" />
        <dc:title></dc:title>
      </cc:Work>
    </rdf:RDF>
  </metadata>
  <g
     inkscape:label="Layer 1"
     inkscape:groupmode="layer"
     id="layer1"
     transform="translate(-94.482468,-88.452551)">
    <g
       id="windowKey"
       style="display:inline"
       transform="matrix(0.79548291,0,0,0.65567065,75.65364,29.668093)">
      <path
         id="path1574"
         style="fill:#ffff00;fill-opacity:1;stroke:#ffff00;stroke-width:0.264583;stroke-linejoin:miter;stroke-miterlimit:4;stroke-dasharray:none;stroke-opacity:1"
         transform="scale(-1)"
         d="m -27.086472,-90.569885 a 0.78212714,0.78212714 0 0 1 -0.779755,0.782123 0.78212714,0.78212714 0 0 1 -0.784485,-0.77738 0.78212714,0.78212714 0 0 1 0.774998,-0.786838 0.78212714,0.78212714 0 0 1 0.789185,0.772608 l -0.78207,0.0095 z" />
      <path
         sodipodi:type="spiral"
         style="fill:none;fill-rule:evenodd;stroke:#f2f2f2;stroke-width:0.264583"
         id="path1149"
         sodipodi:cx="28.986649"
         sodipodi:cy="90.649651"
         sodipodi:expansion="1"
         sodipodi:revolution="2.6178427"
         sodipodi:radius="0.76599258"
         sodipodi:argument="-9.0126333"
         sodipodi:t0="0.50488001"
         d="m 29.280394,90.398101 c 0.173136,0.158976 0.163274,0.435304 0.0054,0.600857 -0.189563,0.198765 -0.512291,0.185347 -0.704,-0.0026 -0.224468,-0.220059 -0.207472,-0.589335 0.01058,-0.807143 0.250499,-0.250221 0.666417,-0.229631 0.910286,0.01856 0.276008,0.280901 0.251815,0.743527 -0.02654,1.013429 -0.05279,0.05119 -0.113099,0.09453 -0.178354,0.128416" />
      <path
         style="fill:#ffff00;fill-opacity:1;stroke:#ffff00;stroke-width:0.264583px;stroke-linecap:butt;stroke-linejoin:miter;stroke-opacity:1"
         id="path2229"
         d="m 27.261903,91.045009 -2.499883,0.01463 -0.818675,-0.248526 0.687102,-0.570148 0.277765,0.307001 0.190049,-0.277764 0.248527,-0.01463 0.263145,0.248526 0.277765,-0.233908 0.321622,0.467815 0.160811,-0.497051 h 0.263146 0.745579 z" />
      <path
         style="fill:#ffff00;stroke:#ffff00;stroke-width:0.0792653;stroke-linecap:butt;stroke-linejoin:miter;stroke-miterlimit:4;stroke-dasharray:none;stroke-opacity:1"
         d="m 28.247076,91.130151 0.302265,-0.346894 0.100755,0.142839 -0.295068,0.377502 z"
         id="path2353" />
      <path
         style="fill:none;stroke:#ffff00;stroke-width:0.13846554;stroke-linecap:butt;stroke-linejoin:miter;stroke-opacity:1;stroke-miterlimit:4;stroke-dasharray:none"
         d="m 28.395553,89.955543 0.318002,0.471548 -0.0795,0.117887 -0.318003,-0.460831 z"
         id="path2916" />
    </g>
  </g>
</svg>
